<svg width="495" height="195" viewBox="0 0 495 195" fill="none" xmlns="http://www.w3.org/2000/svg" role="img" aria-labelledby="title desc">
  <title id="title">Основные языки во всех репозиториях</title>
  <desc id="desc">TypeScript 51,8 процента, HTML 20,7 процента, JavaScript 11,3 процента, Python 5,3 процента, остальные языки 10,9 процента.</desc>
  <defs>
    <linearGradient id="accent" x1="16" y1="0" x2="479" y2="0" gradientUnits="userSpaceOnUse">
      <stop stop-color="#4F46E5"/>
      <stop offset="0.5" stop-color="#7C3AED"/>
      <stop offset="1" stop-color="#A855F7"/>
    </linearGradient>
    <linearGradient id="panel" x1="0" y1="0" x2="495" y2="195" gradientUnits="userSpaceOnUse">
      <stop stop-color="#111827"/>
      <stop offset="1" stop-color="#0D1117"/>
    </linearGradient>
    <filter id="glow" x="-20%" y="-100%" width="140%" height="300%">
      <feGaussianBlur stdDeviation="4"/>
    </filter>
  </defs>
  <rect x="0.5" y="0.5" width="494" height="194" rx="13.5" fill="url(#panel)" stroke="#30363D"/>
  <rect x="16" y="0" width="463" height="3" rx="1.5" fill="url(#accent)" filter="url(#glow)" opacity="0.65"/>
  <rect x="16" y="1" width="463" height="2" rx="1" fill="url(#accent)"/>

  <g font-family="'Segoe UI', Arial, sans-serif">
    <circle cx="28" cy="29" r="9" fill="#7C3AED" opacity="0.2"/>
    <path d="M23 33.5h2.8V27H23v6.5Zm4.1 0h2.8V23.7h-2.8v9.8Zm4.1 0H34v-4.6h-2.8v4.6Z" fill="#A78BFA"/>
    <text x="45" y="34" fill="#E6EDF3" font-size="15" font-weight="600">Языки во всех репозиториях</text>

    <clipPath id="bar">
      <rect x="28" y="54" width="439" height="12" rx="6"/>
    </clipPath>
    <g clip-path="url(#bar)">
      <rect x="28" y="54" width="227.4" height="12" fill="#7C3AED"/>
      <rect x="255.4" y="54" width="90.9" height="12" fill="#4F46E5"/>
      <rect x="346.3" y="54" width="49.6" height="12" fill="#A855F7"/>
      <rect x="395.9" y="54" width="23.3" height="12" fill="#60A5FA"/>
      <rect x="419.2" y="54" width="47.8" height="12" fill="#312E81"/>
    </g>

    <circle cx="32" cy="91" r="4" fill="#7C3AED"/>
    <text x="43" y="95" fill="#E6EDF3" font-size="11" font-weight="600">TypeScript</text>
    <text x="212" y="95" fill="#C4B5FD" font-size="11" font-weight="600" text-anchor="end">51,8%</text>

    <circle cx="263" cy="91" r="4" fill="#4F46E5"/>
    <text x="274" y="95" fill="#E6EDF3" font-size="11" font-weight="600">HTML</text>
    <text x="467" y="95" fill="#C4B5FD" font-size="11" font-weight="600" text-anchor="end">20,7%</text>

    <circle cx="32" cy="120" r="4" fill="#A855F7"/>
    <text x="43" y="124" fill="#E6EDF3" font-size="11" font-weight="600">JavaScript</text>
    <text x="212" y="124" fill="#C4B5FD" font-size="11" font-weight="600" text-anchor="end">11,3%</text>

    <circle cx="263" cy="120" r="4" fill="#60A5FA"/>
    <text x="274" y="124" fill="#E6EDF3" font-size="11" font-weight="600">Python</text>
    <text x="467" y="124" fill="#C4B5FD" font-size="11" font-weight="600" text-anchor="end">5,3%</text>

    <circle cx="32" cy="149" r="4" fill="#312E81"/>
    <text x="43" y="153" fill="#E6EDF3" font-size="11" font-weight="600">Остальные</text>
    <text x="212" y="153" fill="#C4B5FD" font-size="11" font-weight="600" text-anchor="end">10,9%</text>

    <rect x="28" y="163" width="439" height="1" fill="#21262D"/>
    <text x="28" y="181" fill="#8B949E" font-size="9">По объёму кода · private + public · 2,76 МБ</text>
    <circle cx="457" cy="177.5" r="3.5" fill="#7C3AED"/>
  </g>
</svg>
